<svg width="156" height="156" viewBox="0 0 156 156" fill="none" xmlns="http://www.w3.org/2000/svg">
<path d="M130 117C137.15 117 143 111.15 143 104V39C143 31.85 137.15 26 130 26H26C18.85 26 13 31.85 13 39V104C13 111.15 18.85 117 26 117H0V130H156V117H130ZM26 39H130V104H26V39Z" fill="#3766FE"/>
<path d="M78 71.6667C78.4722 71.6667 78.8683 71.5067 79.1883 71.1867C79.5072 70.8678 79.6666 70.4722 79.6666 70V63.2917C79.6666 62.8194 79.5072 62.4306 79.1883 62.125C78.8683 61.8194 78.4722 61.6667 78 61.6667C77.5278 61.6667 77.1322 61.8261 76.8133 62.145C76.4933 62.465 76.3333 62.8611 76.3333 63.3333V70.0417C76.3333 70.5139 76.4933 70.9028 76.8133 71.2083C77.1322 71.5139 77.5278 71.6667 78 71.6667ZM78 78.3333C78.4722 78.3333 78.8683 78.1733 79.1883 77.8533C79.5072 77.5344 79.6666 77.1389 79.6666 76.6667C79.6666 76.1944 79.5072 75.7983 79.1883 75.4783C78.8683 75.1594 78.4722 75 78 75C77.5278 75 77.1322 75.1594 76.8133 75.4783C76.4933 75.7983 76.3333 76.1944 76.3333 76.6667C76.3333 77.1389 76.4933 77.5344 76.8133 77.8533C77.1322 78.1733 77.5278 78.3333 78 78.3333ZM78 86.6667C75.6944 86.6667 73.5278 86.2289 71.5 85.3533C69.4722 84.4789 67.7083 83.2917 66.2083 81.7917C64.7083 80.2917 63.5211 78.5278 62.6466 76.5C61.7711 74.4722 61.3333 72.3056 61.3333 70C61.3333 67.6944 61.7711 65.5278 62.6466 63.5C63.5211 61.4722 64.7083 59.7083 66.2083 58.2083C67.7083 56.7083 69.4722 55.5206 71.5 54.645C73.5278 53.7706 75.6944 53.3333 78 53.3333C80.3055 53.3333 82.4722 53.7706 84.5 54.645C86.5278 55.5206 88.2916 56.7083 89.7916 58.2083C91.2916 59.7083 92.4789 61.4722 93.3533 63.5C94.2289 65.5278 94.6666 67.6944 94.6666 70C94.6666 72.3056 94.2289 74.4722 93.3533 76.5C92.4789 78.5278 91.2916 80.2917 89.7916 81.7917C88.2916 83.2917 86.5278 84.4789 84.5 85.3533C82.4722 86.2289 80.3055 86.6667 78 86.6667Z" fill="#FF4040"/>
</svg>
