<svg width="17" height="17" viewBox="0 0 17 17" fill="none" xmlns="http://www.w3.org/2000/svg">
<g clip-path="url(#clip0_43_949)">
<path d="M12.502 4.49791C11.4785 3.47083 10.0653 2.83333 8.49992 2.83333C5.36908 2.83333 2.84033 5.36916 2.84033 8.49999C2.84033 11.6308 5.36908 14.1667 8.49992 14.1667C11.1385 14.1667 13.3485 12.3604 13.9753 9.91666H12.502C11.9176 11.5671 10.3522 12.75 8.49992 12.75C6.15179 12.75 4.24992 10.8481 4.24992 8.49999C4.24992 6.15187 6.15179 4.24999 8.49992 4.24999C9.67221 4.24999 10.7241 4.73874 11.4926 5.50729L9.20825 7.79166H14.1666V2.83333L12.502 4.49791Z" fill="#4D6BEC"/>
</g>
<defs>
<clipPath id="clip0_43_949">
<rect width="17" height="17" fill="white"/>
</clipPath>
</defs>
</svg>
