<svg width="14" height="20" viewBox="0 0 14 20" fill="none" xmlns="http://www.w3.org/2000/svg">
<path d="M13.483 2.40365H8.5045C9.08053 2.73281 9.52398 3.13055 9.83485 3.59686C10.1457 4.05403 10.3514 4.57062 10.452 5.14665H13.483V7.24505H10.4246C10.2326 8.19596 9.77999 9.028 9.06681 9.74118C8.36277 10.4544 7.43015 10.9801 6.26895 11.3184C6.70783 11.547 7.07814 11.8853 7.37987 12.3333L12.9207 20H10.3149C9.80285 20 9.41883 19.7943 9.16282 19.3828L4.30771 12.5528C4.15227 12.3242 3.98312 12.1642 3.80025 12.0727C3.61738 11.9722 3.33851 11.9219 2.96364 11.9219H0.59094V9.90576H3.21051C4.43571 9.90576 5.41405 9.66346 6.14552 9.17886C6.88613 8.68512 7.37529 8.04052 7.61302 7.24505H0.56351V5.14665H7.6816C7.48959 4.29632 7.02785 3.64258 6.29638 3.18541C5.57406 2.7191 4.57743 2.48594 3.30651 2.48594H0.59094V0.305258H13.483V2.40365Z" fill="black"/>
</svg>
