<svg width="25" height="24" viewBox="0 0 25 24" fill="none" xmlns="http://www.w3.org/2000/svg">
<path d="M4.625 21C3.92881 21 3.26113 20.7234 2.76884 20.2312C2.27656 19.7389 2 19.0712 2 18.375V14.625C2 14.3266 2.11853 14.0405 2.3295 13.8295C2.54048 13.6185 2.82663 13.5 3.125 13.5C3.42337 13.5 3.70952 13.6185 3.9205 13.8295C4.13147 14.0405 4.25 14.3266 4.25 14.625V18.375C4.25 18.582 4.418 18.75 4.625 18.75H20.375C20.4745 18.75 20.5698 18.7105 20.6402 18.6402C20.7105 18.5698 20.75 18.4745 20.75 18.375V14.625C20.75 14.3266 20.8685 14.0405 21.0795 13.8295C21.2905 13.6185 21.5766 13.5 21.875 13.5C22.1734 13.5 22.4595 13.6185 22.6705 13.8295C22.8815 14.0405 23 14.3266 23 14.625V18.375C23 19.0712 22.7234 19.7389 22.2312 20.2312C21.7389 20.7234 21.0712 21 20.375 21H4.625Z" fill="#2B92F0"/>
<path d="M18.1703 7.08012C18.2747 7.18452 18.3575 7.30846 18.414 7.44487C18.4705 7.58128 18.4996 7.72747 18.4996 7.87512C18.4996 8.02277 18.4705 8.16896 18.414 8.30537C18.3575 8.44178 18.2747 8.56572 18.1703 8.67012C18.0659 8.77452 17.9419 8.85734 17.8055 8.91384C17.6691 8.97034 17.5229 8.99942 17.3753 8.99942C17.2276 8.99942 17.0814 8.97034 16.945 8.91384C16.8086 8.85734 16.6847 8.77452 16.5803 8.67012L13.6253 5.71662V14.2501C13.6253 14.5485 13.5067 14.8346 13.2958 15.0456C13.0848 15.2566 12.7986 15.3751 12.5003 15.3751C12.2019 15.3751 11.9158 15.2566 11.7048 15.0456C11.4938 14.8346 11.3753 14.5485 11.3753 14.2501V5.71662L8.42028 8.67012C8.31588 8.77452 8.19193 8.85734 8.05553 8.91384C7.91912 8.97034 7.77292 8.99942 7.62528 8.99942C7.47763 8.99942 7.33143 8.97034 7.19503 8.91384C7.05862 8.85734 6.93468 8.77452 6.83028 8.67012C6.72588 8.56572 6.64306 8.44178 6.58656 8.30537C6.53006 8.16896 6.50098 8.02277 6.50098 7.87512C6.50098 7.72747 6.53006 7.58128 6.58656 7.44487C6.64306 7.30846 6.72588 7.18452 6.83028 7.08012L11.7053 2.20512C11.8096 2.10062 11.9335 2.01772 12.07 1.96116C12.2064 1.9046 12.3526 1.87549 12.5003 1.87549C12.648 1.87549 12.7942 1.9046 12.9306 1.96116C13.067 2.01772 13.1909 2.10062 13.2953 2.20512L18.1703 7.08012Z" fill="#2536B8"/>
</svg>
